<?xml version="1.0" encoding="UTF-8"?>
<svg width="83px" height="34px" viewBox="0 0 83 34" version="1.1" xmlns="http://www.w3.org/2000/svg" xmlns:xlink="http://www.w3.org/1999/xlink">
    <!-- Generator: Sketch 41 (35326) - http://www.bohemiancoding.com/sketch -->
    <title>Group 8</title>
    <desc>Created with Sketch.</desc>
    <defs>
        <path d="M82.3909881,14.4956664 C81.5393644,10.71726 72.3924946,9.35897407 62.6311622,8.44806011 C62.0220895,8.39415988 61.4938673,8.34564967 61.0788354,8.30252948 C54.9449888,4.56185322 48.3476001,0.891247257 41.0117782,0.244444444 C27.6714702,0.244444444 19.8667163,1.20386862 6.20839688,7.12211435 L2.10658905,7.61260648 L2.08502895,8.38337983 C2.06346886,9.07869285 2.03651874,10.1566975 2.01495865,11.2508723 C1.98261851,12.6684485 1.95027837,14.1129747 1.92332825,14.8298479 C1.92332825,15.5197709 1.11482473,16.5384853 0.726743047,16.921177 L0.451851852,17.1852881 L0.451851852,23.825797 L0.656672742,24.0737381 C0.748303141,24.1869285 2.88275242,26.6339992 6.72044911,26.7849198 L6.72044911,26.82804 L7.0169004,26.82804 C7.02229042,26.82804 7.02768044,26.83343 7.03846049,26.83343 C7.11392082,26.83343 7.18938115,26.82804 7.2702315,26.82804 L7.615193,26.82804 L8.06256494,26.82804 C8.4668167,28.3318566 9.32383043,29.6524123 10.4772954,30.6387866 C11.8032412,31.7653015 13.5172687,32.4444444 15.3876068,32.4444444 C17.2579449,32.4444444 18.9719724,31.7653015 20.2979181,30.6387866 C21.4513832,29.6578023 22.3030069,28.3318566 22.7072586,26.82804 L23.1600206,26.82804 L24.0547645,26.82804 L24.0547645,26.82804 L58.3892138,26.82804 L58.3892138,26.82804 L59.2893477,26.82804 L59.7367196,26.82804 C60.1409714,28.3372466 60.9979851,29.6578023 62.1514501,30.6387866 L62.1514501,30.6387866 C63.4773959,31.7653015 65.1914233,32.4444444 67.0617615,32.4444444 C68.9320996,32.4444444 70.646127,31.7653015 71.9666828,30.6387866 C73.1201478,29.6578023 73.9771615,28.3318566 74.3814133,26.82804 L74.8341753,26.82804 L75.7289191,26.82804 L75.7289191,26.82804 L76.3433818,26.82804 C79.0976838,26.82804 80.3966794,26.6609493 81.7064551,26.3752781 L82.4125482,26.2243574 L82.3909881,14.4956664 Z" id="path-1"></path>
        <filter x="-50%" y="-50%" width="200%" height="200%" filterUnits="objectBoundingBox" id="filter-2">
            <feOffset dx="0" dy="1" in="SourceAlpha" result="shadowOffsetOuter1"></feOffset>
            <feColorMatrix values="0 0 0 0 0   0 0 0 0 0   0 0 0 0 0  0 0 0 0.05 0" type="matrix" in="shadowOffsetOuter1"></feColorMatrix>
        </filter>
    </defs>
    <g id="Telas" stroke="none" stroke-width="1" fill="none" fill-rule="evenodd">
        <g id="LANDING_PARCEIRO" transform="translate(-799.000000, -706.000000)">
            <g id="VALOR" transform="translate(0.000000, 578.000000)">
                <g id="Group-3" transform="translate(350.000000, 127.000000)">
                    <g id="Group-4">
                        <g id="Group-6">
                            <g id="Group-8" transform="translate(449.000000, 1.000000)">
                                <g id="Combined-Shape">
                                    <use fill="black" fill-opacity="1" filter="url(#filter-2)" xlink:href="#path-1"></use>
                                    <use fill="#999999" fill-rule="evenodd" xlink:href="#path-1"></use>
                                </g>
                                <path d="M76.3433818,25.0331622 L75.7289191,25.0331622 L75.7289191,23.3029647 C75.7289191,20.9151843 74.7533249,18.7483949 73.1848281,17.1745081 L73.1848281,17.1798981 C71.6109412,15.6060112 69.4441518,14.630417 67.0617615,14.630417 C64.6739811,14.630417 62.5071917,15.6060112 60.9386948,17.1745081 C59.364808,18.7483949 58.3892138,20.9151843 58.3892138,23.3029647 L58.3892138,25.0331622 L24.0547645,25.0331622 L24.0547645,23.3029647 C24.0547645,20.9151843 23.0845603,18.7483949 21.5106734,17.1745081 L21.5106734,17.1798981 C19.9367866,15.6060112 17.7699971,14.630417 15.3876068,14.630417 C13.0052164,14.630417 10.833037,15.6060112 9.26454017,17.1745081 C7.69604335,18.7483949 6.72044911,20.9151843 6.72044911,23.3029647 L6.72044911,24.979262 C4.36500887,24.8499014 2.76956193,23.6587062 2.24672966,23.146654 L2.24672966,17.9183313 C2.74800184,17.3631589 3.71820605,16.1234535 3.71281603,14.867578 C3.71820605,14.8352379 3.71820605,14.7489975 3.71820605,14.7112673 C5.13578222,14.5872968 6.83902962,13.5739724 6.89292986,12.3881672 L6.89292986,11.2239222 L3.80983645,11.2239222 C3.82600652,10.5070491 3.84217659,9.80095599 3.85295664,9.20805342 L6.55335838,8.89004203 L6.80129946,8.81997173 C20.2386279,2.98257635 27.8924612,2.03932225 40.9309278,2.03932225 C47.873278,2.6483949 54.314356,6.27588067 60.3134521,9.93570658 L60.6853637,10.0650671 C61.1381257,10.1135774 61.7471984,10.1674776 62.4694615,10.2375479 C72.8991568,11.2077521 78.8551327,12.571428 80.2727089,14.1560949 L75.3192774,13.7410631 L77.4267765,17.5194696 C78.1166995,17.1259978 79.135414,16.8672767 79.9169674,16.8672767 L79.9223574,16.8672767 L79.9331374,16.8672767 L79.9439175,16.8672767 L79.9493075,16.8672767 L79.9600875,16.8672767 L79.9654776,16.8672767 C80.1864685,16.8726667 80.4020695,16.8672767 80.6176704,16.8726667 L80.6176704,18.9639958 L77.987339,18.9639958 C77.3297561,19.6215787 77.2920259,20.5432727 77.2920259,21.3356061 L80.6176704,21.3356061 L80.6176704,22.5268013 L78.4886111,22.5268013 C78.4886111,23.0873638 78.5047812,23.7072165 78.7473323,24.2569988 L80.6176704,24.2569988 L80.6176704,24.763661 C79.7390966,24.9145817 78.5640715,25.0331622 76.3433818,25.0331622 Z M27.0699436,22.5472834 L55.2058659,22.5472834 L27.0699436,21.0165168 L27.0699436,22.5472834 Z M19.0932479,12.8565603 L23.2327859,12.8565603 L23.2327859,11.6599751 L19.0932479,11.6599751 L19.0932479,12.8565603 Z M37.6618786,13.3362724 L41.8014166,13.3362724 L41.8014166,12.1396872 L37.6618786,12.1396872 L37.6618786,13.3362724 Z M56.9269004,9.44575345 C56.5657688,8.85285087 55.9728662,8.21143808 55.0242221,7.88264665 C54.7062107,7.76945616 54.3720293,7.84491649 54.1240882,8.08207752 L54.1079181,8.09824759 C53.612036,8.5833497 53.3425348,9.1816423 53.3209747,9.8715653 C53.3101947,10.1195064 53.391045,10.3351073 53.5635258,10.5129781 C53.7360065,10.6908489 53.9462174,10.7770892 54.1941585,10.7770892 L54.7870611,10.7770892 L55.2667732,11.4346721 C55.3853537,11.5963728 55.5632245,11.6772232 55.7518753,11.6772232 C55.8758458,11.6772232 55.9944263,11.639493 56.1022268,11.5640327 C56.366338,11.3753818 56.4202382,11.0088602 56.2369774,10.7447491 C56.5334287,10.723189 56.7975398,10.5938284 56.9430705,10.3297173 C57.0993811,10.0494361 57.0939911,9.72603467 56.9269004,9.44575345 Z M52.4440179,9.83976416 C52.476358,8.91807016 52.8428796,8.11495666 53.5004625,7.46815385 L53.5220226,7.44659376 L53.5435827,7.42503366 C49.5495753,5.3390946 45.2968468,3.64123721 40.9147578,3.23698546 C35.1959429,3.23698546 28.9758559,3.20464531 23.3648415,4.4443507 C21.0094012,4.96179295 18.6000608,5.71100621 16.2068904,6.55184987 L16.9453236,9.05821077 L52.4494079,10.0715352 C52.4440179,9.99607484 52.4440179,9.91522449 52.4440179,9.83976416 Z M15.3876068,29.9219135 C12.5955747,29.9219135 10.3263748,27.6527136 10.3263748,24.8606815 C10.3263748,22.0686493 12.5955747,19.7994495 15.3876068,19.7994495 C18.185029,19.7994495 20.4488388,22.0686493 20.4488388,24.8606815 C20.4488388,27.6527136 18.185029,29.9219135 15.3876068,29.9219135 Z M15.3881458,22.8933229 C14.2993611,22.8933229 13.4207872,23.7772868 13.4207872,24.8606815 C13.4207872,25.9494662 14.2993611,26.82804 15.3881458,26.82804 C16.4769305,26.82804 17.3555043,25.9494662 17.3555043,24.8606815 C17.3555043,23.7772868 16.4769305,22.8933229 15.3881458,22.8933229 Z M67.0617615,29.9219135 C64.2643393,29.9219135 62.0005295,27.6527136 62.0005295,24.8606815 C62.0005295,22.0686493 64.2643393,19.7994495 67.0617615,19.7994495 C69.8537936,19.7994495 72.1176034,22.0686493 72.1176034,24.8606815 C72.1176034,27.6527136 69.8537936,29.9219135 67.0617615,29.9219135 Z M67.0606835,22.8933229 C65.9718987,22.8933229 65.0933249,23.7772868 65.0933249,24.8606815 C65.0933249,25.9494662 65.9718987,26.82804 67.0606835,26.82804 C68.1494682,26.82804 69.028042,25.9494662 69.028042,24.8606815 C69.028042,23.7772868 68.1494682,22.8933229 67.0606835,22.8933229 Z" id="Combined-Shape" fill="#FFFFFF"></path>
                            </g>
                        </g>
                    </g>
                </g>
            </g>
        </g>
    </g>
</svg>