<?xml version="1.0" encoding="UTF-8"?>
<svg width="63px" height="31px" viewBox="0 0 63 31" version="1.1" xmlns="http://www.w3.org/2000/svg" xmlns:xlink="http://www.w3.org/1999/xlink">
    <!-- Generator: Sketch 41 (35326) - http://www.bohemiancoding.com/sketch -->
    <title>Group 11</title>
    <desc>Created with Sketch.</desc>
    <defs>
        <path d="M62.6408943,24.8925658 L62.0504815,15.9538429 C61.148991,11.9542722 51.8484021,8.22768816 48.229743,8.03088389 L47.6583758,7.68171502 C41.5066552,3.91703981 36.1929399,0.67294363 28.5048764,0 L22.7023247,0 C17.3632154,0 13.2239772,0.495184935 10.0624118,1.52364595 L8.75461571,1.94264859 L9.52278722,3.14251978 C6.6024658,5.16135067 1.11734037,9.77037968 1.64426793,13.3763418 C1.64426793,13.9984972 0.85705085,14.7158805 0.482487886,14.963473 L0,15.2808992 L0,21.7627431 L0.101576397,22.2134883 C0.139667546,22.2960191 0.882444949,23.806968 2.72986567,24.8163835 L3.38376372,25.1274612 C3.66309882,25.2480832 3.96147948,25.3496596 4.28525425,25.4321904 C4.60902901,26.2892412 5.11056247,27.0510642 5.74541495,27.6859167 C6.91354352,28.8540453 8.5197203,29.5714286 10.2909587,29.5714286 C12.0621971,29.5714286 13.6683739,28.8540453 14.8365025,27.6859167 C15.4078697,27.1145495 15.8649635,26.4479544 16.1887383,25.705177 L16.7981967,25.705177 L17.8520518,25.705177 L43.9762314,25.705177 L45.036435,25.705177 L45.6395449,25.705177 C45.9633196,26.4479544 46.4267619,27.120898 46.9917807,27.6859167 C48.1599092,28.8540453 49.7724345,29.5714286 51.5436729,29.5714286 C53.3149114,29.5714286 54.9210881,28.8540453 56.0828682,27.6859167 C56.6669325,27.1082009 57.1303748,26.4225603 57.4604981,25.6670858 C57.6953935,25.6543888 57.9112433,25.6480402 58.1080476,25.6353432 C58.2731092,25.6226461 58.330246,25.6226461 58.3810342,25.6162976 L59.104766,25.5782065 C60.1459241,25.4385389 60.9331411,25.2861743 61.7521008,25.0957186 L62.6408943,24.8925658 Z" id="path-1"></path>
        <filter x="-50%" y="-50%" width="200%" height="200%" filterUnits="objectBoundingBox" id="filter-2">
            <feOffset dx="0" dy="1" in="SourceAlpha" result="shadowOffsetOuter1"></feOffset>
            <feColorMatrix values="0 0 0 0 0   0 0 0 0 0   0 0 0 0 0  0 0 0 0.05 0" type="matrix" in="shadowOffsetOuter1"></feColorMatrix>
        </filter>
    </defs>
    <g id="Telas" stroke="none" stroke-width="1" fill="none" fill-rule="evenodd">
        <g id="LANDING_PARCEIRO" transform="translate(-409.000000, -705.000000)">
            <g id="VALOR" transform="translate(0.000000, 578.000000)">
                <g id="Group-3" transform="translate(350.000000, 127.000000)">
                    <g id="Group-4">
                        <g id="Group-6">
                            <g id="Group-11" transform="translate(59.000000, 0.000000)">
                                <g id="Fill-21">
                                    <use fill="black" fill-opacity="1" filter="url(#filter-2)" xlink:href="#path-1"></use>
                                    <use fill="#999999" fill-rule="evenodd" xlink:href="#path-1"></use>
                                </g>
                                <path d="M59.104766,23.419708 L59.104766,22.7594614 C59.104766,20.6834938 58.2540637,18.7916334 56.8827823,17.4203521 C55.5178495,16.0490707 53.6196406,15.1983684 51.5436729,15.1983684 C49.4613568,15.1983684 47.5758449,16.0490707 46.2045636,17.4203521 L46.1982151,17.4203521 C44.8269337,18.7916334 43.9762314,20.6834938 43.9762314,22.7594614 L43.9762314,23.5911182 L17.8520518,23.5911182 L17.8520518,22.7594614 C17.8520518,20.6771453 17.0013494,18.7852849 15.6364166,17.4203521 L15.6300681,17.4203521 C14.2587867,16.0490707 12.3669263,15.1983684 10.2909587,15.1983684 C8.21499111,15.1983684 6.32313071,16.0490707 4.95184935,17.4203521 L4.94550083,17.4203521 C3.68849292,18.67736 2.94571551,20.4041587 2.82509354,22.2896706 C2.4822732,21.9722444 2.22833221,21.6675152 2.11405876,21.483408 L2.11405876,16.3728455 C2.62828927,15.9347973 3.35836963,15.1158376 3.61865914,14.0302398 L5.07247132,14.0302398 C5.07247132,14.0302398 6.97702877,11.9288781 6.90084647,10.6464761 C6.90084647,10.6464761 5.91682512,10.6528246 4.53284672,10.8496289 C4.9391523,10.2147764 5.47242839,9.55452984 6.08188677,8.88793474 L7.71980617,8.87523769 L12.4367601,3.79641784 L12.4494572,3.79006931 L12.0431516,3.15521683 C14.8111084,2.4568791 18.3218426,2.11405876 22.7023247,2.11405876 L28.4096485,2.10771024 C35.5136478,2.72986567 40.3829663,5.71367233 46.5537324,9.48469607 L47.6202846,10.1385941 L47.9250138,10.1385941 L47.9567564,10.1385941 C49.378826,10.1385941 51.810311,10.8877201 54.1148255,11.9225296 C56.1082623,15.3888241 57.2827394,16.5633012 59.9935595,16.7029688 L60.3935165,23.2292523 C60.0062565,23.3054346 59.5682083,23.3689198 59.104766,23.419708 Z M12.0533092,12.299632 L15.1196467,12.299632 L15.1196467,10.8902595 L12.0533092,10.8902595 L12.0533092,12.299632 Z M41.8342391,7.9331166 C41.4533276,7.79979758 41.0597191,7.88867693 40.7740355,8.16801202 L40.7549899,8.1870576 C40.1645771,8.76477335 39.8534994,9.46311108 39.8217567,10.2757223 C39.8154082,10.5677544 39.9106361,10.8216954 40.1137889,11.0311967 C40.3169417,11.240698 40.5645341,11.348623 40.8565663,11.348623 L41.554904,11.348623 L42.1199227,12.1167945 C42.2532417,12.3072502 42.4690916,12.4088266 42.6849414,12.4088266 C42.8309575,12.4088266 42.9769736,12.3643869 43.1039441,12.2691591 C43.4086733,12.0469607 43.478507,11.615261 43.2626572,11.3041833 C43.6054775,11.2787892 43.9165552,11.1264246 44.0879654,10.8153469 C44.2784211,10.4852236 44.2720726,10.1043121 44.0689198,9.7741888 C43.6435687,9.07585107 42.9452309,8.32037662 41.8342391,7.9331166 Z M26.0327608,13.5693369 L29.0990983,13.5693369 L29.0990983,12.1599644 L26.0327608,12.1599644 L26.0327608,13.5693369 Z M40.2655186,7.68171502 L40.2845642,7.66266945 C40.3417009,7.61188125 40.3988376,7.56109305 40.4559744,7.51665338 C36.7674814,5.49147396 33.0028062,3.94878243 28.3937772,3.52343127 L20.5914402,3.52343127 C17.8298319,3.52343127 15.6903791,5.42798871 12.3954947,9.1355272 L39.1608753,10.7226584 C39.1291327,10.5702938 39.1100871,10.4115807 39.1164356,10.2528676 C39.1545268,9.24980065 39.5417868,8.37370423 40.2655186,7.68171502 Z" id="Combined-Shape" fill="#FFFFFF"></path>
                                <path d="M10.2909587,27.5018095 C7.87851929,27.5018095 5.92952217,25.5464638 5.92952217,23.1403729 C5.92952217,20.7279335 7.87851929,18.7725879 10.2909587,18.7725879 C12.7033981,18.7725879 14.6587438,20.7279335 14.6587438,23.1403729 C14.6587438,25.5464638 12.7033981,27.5018095 10.2909587,27.5018095 Z M51.5436729,27.5018095 C49.1312335,27.5018095 47.1758879,25.5528124 47.1758879,23.1403729 C47.1758879,20.7279335 49.1312335,18.7725879 51.5436729,18.7725879 C53.9497638,18.7725879 55.9051095,20.7279335 55.9051095,23.1403729 C55.9051095,25.5528124 53.9497638,27.5018095 51.5436729,27.5018095 Z M51.5411335,21.5583206 C50.6713856,21.5583206 49.9603509,22.2630068 49.9603509,23.1391032 C49.9603509,24.0151997 50.6713856,24.7198859 51.5411335,24.7198859 C52.41723,24.7198859 53.1219162,24.0151997 53.1219162,23.1391032 C53.1219162,22.2630068 52.41723,21.5583206 51.5411335,21.5583206 Z M10.2909587,21.5583206 C9.4148623,21.5583206 8.71017604,22.2630068 8.71017604,23.1391032 C8.71017604,24.0151997 9.4148623,24.7198859 10.2909587,24.7198859 C11.1607066,24.7198859 11.8717414,24.0151997 11.8717414,23.1391032 C11.8717414,22.2630068 11.1607066,21.5583206 10.2909587,21.5583206 Z" id="Combined-Shape" fill="#FFFFFF"></path>
                            </g>
                        </g>
                    </g>
                </g>
            </g>
        </g>
    </g>
</svg>