<?xml version="1.0" encoding="UTF-8"?>
<svg width="82px" height="30px" viewBox="0 0 82 30" version="1.1" xmlns="http://www.w3.org/2000/svg" xmlns:xlink="http://www.w3.org/1999/xlink">
    <!-- Generator: Sketch 41 (35326) - http://www.bohemiancoding.com/sketch -->
    <title>Group 14</title>
    <desc>Created with Sketch.</desc>
    <defs>
        <path d="M72.5730413,24.8516885 L73.4967257,24.8516885 L74.4162245,24.8516885 L74.4162245,24.8506149 L74.8428719,24.8506149 C78.1097969,24.8506149 79.3321894,24.6273158 80.8228591,24.2837787 L81.5952381,24.1077159 L81.0413753,15.1048968 C80.7904062,13.9991368 78.6420244,11.4784333 72.3115459,9.8745445 C66.9611449,8.51757296 60.431622,7.72743763 59.1984119,7.58572857 C57.8959689,6.80203457 50.0878018,2.15354819 46.6218324,1.0928774 C44.9169735,0.573277534 42.8746045,0.20612226 40.468763,-7.10542736e-15 L27.3577925,-7.10542736e-15 C22.7473175,-7.10542736e-15 14.6535649,3.8111147 10.3048767,5.85730754 L9.98467476,6.00975213 L1.13152435,6.58088256 L0.891372914,13.0050263 C0.891372914,13.8746046 0.344000712,14.9653349 0.131975116,15.3131662 L0,15.5321711 L0,21.7158389 L0.417560613,21.9842272 C0.468827258,22.0177466 0.84006335,22.2555068 1.43766335,22.5810283 L1.43766335,24.1014893 L4.89157417,24.1014893 C6.16924622,24.5303178 7.59668851,24.852762 9.0002702,24.852762 C9.06380631,24.852762 9.12870536,24.852762 9.19388557,24.8516885 L9.92171614,24.8516885 L10.8484851,24.8516885 C11.1751023,25.5297565 11.6152305,26.1435092 12.1443069,26.6685703 C13.3429006,27.8580675 15.0001619,28.5945252 16.8305053,28.5945252 C18.6586852,28.5945252 20.3159465,27.8580675 21.5145401,26.6685703 L21.5188672,26.6685703 C22.0479436,26.1435092 22.4880718,25.5297565 22.814689,24.8516885 L23.7379963,24.8516885 L24.6574951,24.8516885 L24.6574951,24.8506149 L58.7609468,24.8506149 L58.7609468,24.8516885 L59.6804456,24.8516885 L60.6072145,24.8516885 C60.9338317,25.5297565 61.3739599,26.1435092 61.9030363,26.6685703 C63.10163,27.8580675 64.7588913,28.5945252 66.5892347,28.5945252 C68.4174146,28.5945252 70.0746759,27.8580675 71.2732696,26.6685703 L71.2754331,26.6685703 C71.8054645,26.1435092 72.2461261,25.5297565 72.5730413,24.8516885 L72.5730413,24.8516885 Z" id="path-1"></path>
        <filter x="-50%" y="-50%" width="200%" height="200%" filterUnits="objectBoundingBox" id="filter-2">
            <feOffset dx="0" dy="1" in="SourceAlpha" result="shadowOffsetOuter1"></feOffset>
            <feColorMatrix values="0 0 0 0 0   0 0 0 0 0   0 0 0 0 0  0 0 0 0.05 0" type="matrix" in="shadowOffsetOuter1"></feColorMatrix>
        </filter>
    </defs>
    <g id="Telas" stroke="none" stroke-width="1" fill="none" fill-rule="evenodd">
        <g id="LANDING_PARCEIRO" transform="translate(-599.000000, -709.000000)">
            <g id="VALOR" transform="translate(0.000000, 578.000000)">
                <g id="Group-3" transform="translate(350.000000, 127.000000)">
                    <g id="Group-4">
                        <g id="Group-6">
                            <g id="Group-14" transform="translate(249.000000, 4.000000)">
                                <g id="Combined-Shape-Copy">
                                    <use fill="black" fill-opacity="1" filter="url(#filter-2)" xlink:href="#path-1"></use>
                                    <use fill="#999999" fill-rule="evenodd" xlink:href="#path-1"></use>
                                </g>
                                <path d="M74.4162245,23.023427 L74.8428719,23.023427 C77.3482356,23.023427 78.5273575,22.8946006 79.6394101,22.6713014 L79.5574768,21.2284456 L78.8467061,21.2284456 C78.7462579,21.4592532 78.5138963,21.6220103 78.2441519,21.6220103 L77.3333073,21.6220103 C76.9719983,21.6220103 76.6799223,21.3300038 76.6799223,20.973584 L76.6799223,20.2671859 C76.6799223,19.908619 76.9719983,19.6166125 77.3333073,19.6166125 L78.2441519,19.6166125 C78.5138829,19.6166125 78.7462348,19.7793534 78.8466911,20.011036 L79.4883456,20.011036 L79.3117045,16.9003648 C78.8437101,16.9018072 78.3757444,16.9019457 77.9066418,16.8964428 L77.9001512,16.8964428 L77.8914971,16.8964428 L77.8850065,16.8964428 L77.8785159,16.8964428 L77.8698618,16.8964428 L77.8633713,16.8964428 C77.2099862,16.8964428 76.3618839,17.1090064 75.7842223,17.4353666 L74.0296023,14.3070319 L78.1235627,14.3070319 C77.0548861,13.5268821 75.109245,12.4692911 71.8550418,11.6437606 C66.0827532,10.1794337 58.8652288,9.38500413 58.7938324,9.3764157 L58.4130517,9.24758929 C58.3265107,9.19605873 49.5685554,3.9055874 46.0809507,2.83847528 C44.4994129,2.35537624 42.5846919,2.01398624 40.3887125,1.82289373 L27.3577925,1.82718795 C23.1605511,1.82718795 15.311277,5.52235887 11.0924003,7.50843273 L10.2789144,7.81976322 L2.9077796,8.29642095 L2.80858627,10.9483126 L6.51005121,10.9483126 L6.51005121,12.1335156 C6.44730894,13.4196327 4.46551868,14.5425695 2.97052187,14.5425695 L2.4763882,14.5425695 C2.27641151,15.1837739 2.00495406,15.7278697 1.84116104,16.0281528 L1.84116104,20.7066987 C2.95726822,21.3515987 6.15555771,22.9806837 9.00221738,23.025289 L9.00221738,21.6181455 C9.00221738,19.4860684 9.88277266,17.5429367 11.2998825,16.1344346 L11.302046,16.1322875 L11.3042096,16.1301404 C12.7234829,14.7237854 14.6814744,13.8499129 16.8298562,13.8499129 C18.9804016,13.8499129 20.9362295,14.7237854 22.3555029,16.1301404 L22.3576664,16.1322875 L22.3598299,16.1344346 C23.7769398,17.5429367 24.6574951,19.4860684 24.6574951,21.6181455 L24.6574951,23.023427 L58.7609468,23.023427 L58.7609468,21.6181455 C58.7609468,19.4860684 59.6415021,17.5429367 61.0586119,16.1344346 L61.0607755,16.1322875 L61.062939,16.1301404 C62.4822124,14.7237854 64.4402038,13.8499129 66.5885856,13.8499129 C68.739131,13.8499129 70.6949589,14.7237854 72.1142323,16.1301404 L72.1163958,16.1322875 L72.1185594,16.1344346 C73.5356692,17.5429367 74.4162245,19.4860684 74.4162245,21.6181455 L74.4162245,23.023427 L74.4162245,23.023427 Z M53.0204884,9.96772894 L52.4116456,9.96772894 C52.158513,9.96772894 51.9399968,9.87540334 51.7647512,9.69504636 C51.5895055,9.51468939 51.5029645,9.29568449 51.5137821,9.04447298 C51.5375809,8.34236904 51.8101852,7.7368849 52.322941,7.2387561 L52.3402492,7.22372636 C52.5890548,6.98110328 52.9330555,6.90595454 53.2619115,7.0197512 C54.2311714,7.35469987 54.8391223,8.00527326 55.2112489,8.61075739 C55.384331,8.8941755 55.3908216,9.22268285 55.2263936,9.51039517 C55.078749,9.77413845 54.8290046,9.93655676 54.5325749,9.9636833 C54.6915167,10.2312653 54.6245555,10.578827 54.3659591,10.764735 C54.2577828,10.844178 54.1301347,10.8828259 54.0046502,10.8828259 C53.8164234,10.8828259 53.6303601,10.7969416 53.5092026,10.6316144 L53.0204884,9.96772894 L53.0204884,9.96772894 Z M23.1484353,9.31500845 C19.9117997,9.31500845 18.2047773,9.19047625 16.4306856,8.53346155 C19.5548178,6.29402908 24.3556831,2.71265482 28.5659057,2.71265482 C31.7506167,2.71265482 35.6536185,2.71050771 38.7409708,2.71050771 C43.5677984,2.71050771 47.6720081,4.43892874 51.6550604,6.6440075 C51.0060024,7.28813956 50.6490206,8.09545175 50.6165677,9.01226638 C50.6122406,9.1131804 50.6165677,9.21624153 50.6295488,9.31500845 L23.1484353,9.31500845 L23.1484353,9.31500845 Z M38.9304957,12.9857024 L43.1731711,12.9857024 L43.1731711,11.7682928 L38.9304957,11.7682928 L38.9304957,12.9857024 L38.9304957,12.9857024 Z M20.0710353,12.9857024 L24.3137107,12.9857024 L24.3137107,11.7682928 L20.0710353,11.7682928 L20.0710353,12.9857024 L20.0710353,12.9857024 Z M27.9395648,19.3495124 L27.9395648,20.908312 L56.7793729,20.908312 L27.9395648,19.3495124 L27.9395648,19.3495124 Z M66.5898838,23.6847359 C67.5137096,23.6847359 68.2687803,22.9353956 68.2687803,22.018581 C68.2687803,21.0996192 67.5137096,20.352426 66.5898838,20.352426 C65.6660579,20.352426 64.9109872,21.0996192 64.9109872,22.018581 C64.9109872,22.9353956 65.6660579,23.6847359 66.5898838,23.6847359 L66.5898838,23.6847359 Z M66.5892347,17.4188339 C64.0297829,17.4188339 61.954961,19.4779094 61.954961,22.0179368 C61.954961,24.5579643 64.0297829,26.6170397 66.5892347,26.6170397 C69.1486865,26.6170397 71.2235084,24.5579643 71.2235084,22.0179368 C71.2235084,19.4779094 69.1486865,17.4188339 66.5892347,17.4188339 L66.5892347,17.4188339 Z M16.8311543,23.6847359 C17.7549802,23.6847359 18.5100509,22.9353956 18.5100509,22.018581 C18.5100509,21.0996192 17.7549802,20.352426 16.8311543,20.352426 C15.9073285,20.352426 15.1522578,21.0996192 15.1522578,22.018581 C15.1522578,22.9353956 15.9073285,23.6847359 16.8311543,23.6847359 L16.8311543,23.6847359 Z M16.8305053,17.4188339 C14.2710534,17.4188339 12.1962315,19.4779094 12.1962315,22.0179368 C12.1962315,24.5579643 14.2710534,26.6170397 16.8305053,26.6170397 C19.3899571,26.6170397 21.464779,24.5579643 21.464779,22.0179368 C21.464779,19.4779094 19.3899571,17.4188339 16.8305053,17.4188339 L16.8305053,17.4188339 Z" id="Combined-Shape-Copy" fill="#FFFFFF"></path>
                            </g>
                        </g>
                    </g>
                </g>
            </g>
        </g>
    </g>
</svg>